<svg width="16" height="16" viewBox="0 0 16 16" fill="none" xmlns="http://www.w3.org/2000/svg">
<circle cx="8" cy="8" r="2" fill="#FF86A3"/>
<path fill-rule="evenodd" clip-rule="evenodd" d="M12.1629 3.83701L12.1666 3.83329C10.9266 2.83329 9.48658 2.28662 7.99992 2.28662C6.81325 2.28662 5.65992 2.63995 4.60659 3.27995C3.55325 3.93329 2.60659 4.88662 1.83325 6.09995C1.16659 7.14662 1.16659 8.84662 1.83325 9.89329C2.39148 10.7659 3.04234 11.5089 3.75017 12.0983C4.38063 12.7105 5.12231 13.2517 6.58927 13.5467C7.05065 13.6562 7.52164 13.7118 8.00058 13.7118C9.18724 13.7118 10.3406 13.3652 11.3939 12.7185C12.4672 12.0518 13.4339 11.0718 14.2139 9.82516C14.8472 8.8185 14.8139 7.12516 14.1806 6.1185C14.0895 5.97397 13.9954 5.83388 13.899 5.69823C13.6857 5.26963 13.1276 4.52563 12.1629 3.83701ZM10.6666 7.99984C10.6666 9.4726 9.47268 10.6665 7.99992 10.6665C6.52716 10.6665 5.33325 9.4726 5.33325 7.99984C5.33325 6.52708 6.52716 5.33317 7.99992 5.33317C9.47268 5.33317 10.6666 6.52708 10.6666 7.99984Z" fill="#FF86A3"/>
</svg>
