<svg width="16" height="16" viewBox="0 0 16 16" xmlns="http://www.w3.org/2000/svg">
<path d="M14.1806 6.11866C13.9873 5.81199 13.7806 5.52533 13.5673 5.25866C13.5091 5.18488 13.436 5.12424 13.3527 5.08072C13.2694 5.03719 13.1779 5.01176 13.0841 5.0061C12.9903 5.00043 12.8963 5.01466 12.8084 5.04784C12.7205 5.08103 12.6406 5.13243 12.5739 5.19866L10.574 7.19866C10.7206 7.63866 10.7473 8.14533 10.6139 8.67199C10.4948 9.13807 10.2525 9.56351 9.9123 9.90367C9.57213 10.2438 9.1467 10.4862 8.68062 10.6053C8.15395 10.7387 7.64728 10.712 7.20728 10.5653L5.56728 12.2053C5.23395 12.5387 5.34062 13.1253 5.78728 13.2987C6.50062 13.572 7.24062 13.712 8.00062 13.712C9.18728 13.712 10.3406 13.3653 11.3939 12.7187C12.4673 12.052 13.4339 11.072 14.2139 9.82533C14.8473 8.81866 14.8139 7.12533 14.1806 6.11866ZM9.34662 6.65333L6.65328 9.34666C6.31328 8.99999 6.09328 8.51999 6.09328 7.99999C6.09328 6.95333 6.94662 6.09333 7.99995 6.09333C8.51995 6.09333 8.99995 6.31333 9.34662 6.65333Z" fill="#D9D9D9"/>
<path d="M12.1666 3.83344L9.90658 6.09344C9.65724 5.84186 9.36012 5.64267 9.03269 5.50757C8.70526 5.37248 8.35412 5.30421 7.99992 5.30677C6.50659 5.30677 5.30659 6.51344 5.30659 8.00011C5.30659 8.74677 5.60659 9.42011 6.09325 9.90677L3.83992 12.1668H3.83325C3.09325 11.5668 2.41325 10.8001 1.83325 9.89344C1.16659 8.84677 1.16659 7.14677 1.83325 6.10011C2.60659 4.88677 3.55325 3.93344 4.60659 3.28011C5.65992 2.64011 6.81325 2.28677 7.99992 2.28677C9.48658 2.28677 10.9266 2.83344 12.1666 3.83344ZM9.90525 7.99877C9.90525 9.04544 9.05192 9.90544 7.99859 9.90544C7.95858 9.90544 7.92525 9.90544 7.88525 9.89211L9.89192 7.88544C9.90525 7.92544 9.90525 7.95877 9.90525 7.99877Z" fill="#D9D9D9"/>
<path d="M14.5126 1.48594C14.3126 1.28594 13.9859 1.28594 13.7859 1.48594L1.48594 13.7926C1.28594 13.9926 1.28594 14.3193 1.48594 14.5193C1.5334 14.5666 1.58979 14.604 1.65183 14.6293C1.71388 14.6546 1.78033 14.6673 1.84733 14.6667C1.91433 14.666 1.98054 14.6521 2.04211 14.6256C2.10367 14.5992 2.15936 14.5608 2.20594 14.5126L14.5126 2.20594C14.7193 2.00594 14.7193 1.68594 14.5126 1.48594Z" fill="#D9D9D9"/>
</svg>
